<svg xml:space="preserve" viewBox="117.57600000000001 20.488 197.66400000000002 362.48" width="197.66400000000002" y="0px" x="0px" xmlns:xlink="http://www.w3.org/1999/xlink" xmlns="http://www.w3.org/2000/svg" id="Layer_1" version="1.1" style="max-height: 500px" height="362.48">

<path style="opacity: 1;" data-index="1" d="M220.975143,21.001507 &#10;&#9;C307.150177,21.851847 381.352020,84.780327 396.082245,169.086823 &#10;&#9;C411.533539,257.520233 361.146637,342.929199 276.633820,371.559387 &#10;&#9;C182.704681,403.379547 80.410408,352.797272 48.487328,258.745972 &#10;&#9;C13.172939,154.703247 79.196159,42.834263 187.242111,24.026493 &#10;&#9;C198.166489,22.124865 209.394531,21.967691 220.975143,21.001507 &#10;M188.424942,212.910980 &#10;&#9;C181.297821,221.204254 173.731400,229.167450 167.176636,237.890793 &#10;&#9;C161.496155,245.450623 161.308304,254.051559 166.687973,262.124908 &#10;&#9;C171.893234,269.936584 179.458755,271.947723 188.504272,270.592865 &#10;&#9;C196.536987,269.389679 204.679443,268.060455 212.752258,268.183014 &#10;&#9;C225.171417,268.371613 237.589188,269.572235 249.974121,270.708008 &#10;&#9;C256.176300,271.276825 261.921082,270.894867 266.882599,266.756592 &#10;&#9;C276.712067,258.558105 277.905304,245.783966 268.886047,234.809738 &#10;&#9;C258.452362,222.114517 247.581177,209.735413 236.266464,197.820602 &#10;&#9;C226.085541,187.099701 211.206039,187.717346 201.038254,198.510422 &#10;&#9;C196.827560,202.980042 192.910431,207.726196 188.424942,212.910980 &#10;M214.729034,150.061874 &#10;&#9;C213.951965,148.597382 213.311646,147.038391 212.375565,145.683792 &#10;&#9;C206.425476,137.073425 194.989136,135.394180 186.966599,141.894058 &#10;&#9;C179.011642,148.339172 178.275757,160.038666 185.351135,167.577667 &#10;&#9;C190.531662,173.097656 198.715668,174.594086 205.502396,171.262329 &#10;&#9;C213.317551,167.425659 216.453064,160.615372 214.729034,150.061874 &#10;M224.937515,146.626053 &#10;&#9;C221.152344,154.198471 221.808685,161.191345 226.852829,167.032425 &#10;&#9;C231.414978,172.315353 239.043747,174.407303 245.455429,172.133621 &#10;&#9;C252.689285,169.568359 257.649048,162.787857 257.636017,155.481369 &#10;&#9;C257.623016,148.161407 252.658752,141.404968 245.419891,138.854919 &#10;&#9;C238.097580,136.275452 230.889648,138.837280 224.937515,146.626053 &#10;M162.338699,200.535522 &#10;&#9;C173.184128,202.104691 181.859085,196.538895 183.784409,186.776108 &#10;&#9;C185.545242,177.847321 179.849228,168.953781 170.809433,166.517502 &#10;&#9;C161.800827,164.089630 152.471695,169.453079 149.712646,178.646332 &#10;&#9;C146.943146,187.874435 151.749680,196.634415 162.338699,200.535522 &#10;M288.038971,189.199539 &#10;&#9;C290.951324,178.612274 285.922577,169.265717 275.841522,166.529037 &#10;&#9;C266.495453,163.991852 256.766602,169.905899 254.397888,179.564346 &#10;&#9;C252.386688,187.765030 257.150665,196.783691 265.109497,199.842468 &#10;&#9;C274.143829,203.314606 282.904419,199.503204 288.038971,189.199539 &#10;z" stroke="none" opacity="1.000000" fill="#F8D849"/>
<path data-index="2" d="M188.642365,212.628784 &#10;&#9;C192.910431,207.726196 196.827560,202.980042 201.038254,198.510422 &#10;&#9;C211.206039,187.717346 226.085541,187.099701 236.266464,197.820602 &#10;&#9;C247.581177,209.735413 258.452362,222.114517 268.886047,234.809738 &#10;&#9;C277.905304,245.783966 276.712067,258.558105 266.882599,266.756592 &#10;&#9;C261.921082,270.894867 256.176300,271.276825 249.974121,270.708008 &#10;&#9;C237.589188,269.572235 225.171417,268.371613 212.752258,268.183014 &#10;&#9;C204.679443,268.060455 196.536987,269.389679 188.504272,270.592865 &#10;&#9;C179.458755,271.947723 171.893234,269.936584 166.687973,262.124908 &#10;&#9;C161.308304,254.051559 161.496155,245.450623 167.176636,237.890793 &#10;&#9;C173.731400,229.167450 181.297821,221.204254 188.642365,212.628784 &#10;z" stroke="none" opacity="1.000000" fill="#FFFFFD"/>
<path data-index="3" d="M214.820770,150.442810 &#10;&#9;C216.453064,160.615372 213.317551,167.425659 205.502396,171.262329 &#10;&#9;C198.715668,174.594086 190.531662,173.097656 185.351135,167.577667 &#10;&#9;C178.275757,160.038666 179.011642,148.339172 186.966599,141.894058 &#10;&#9;C194.989136,135.394180 206.425476,137.073425 212.375565,145.683792 &#10;&#9;C213.311646,147.038391 213.951965,148.597382 214.820770,150.442810 &#10;z" stroke="none" opacity="1.000000" fill="#FFFFFD"/>
<path data-index="4" d="M225.135452,146.310028 &#10;&#9;C230.889648,138.837280 238.097580,136.275452 245.419891,138.854919 &#10;&#9;C252.658752,141.404968 257.623016,148.161407 257.636017,155.481369 &#10;&#9;C257.649048,162.787857 252.689285,169.568359 245.455429,172.133621 &#10;&#9;C239.043747,174.407303 231.414978,172.315353 226.852829,167.032425 &#10;&#9;C221.808685,161.191345 221.152344,154.198471 225.135452,146.310028 &#10;z" stroke="none" opacity="1.000000" fill="#FFFFFD"/>
<path data-index="5" d="M161.955475,200.398102 &#10;&#9;C151.749680,196.634415 146.943146,187.874435 149.712646,178.646332 &#10;&#9;C152.471695,169.453079 161.800827,164.089630 170.809433,166.517502 &#10;&#9;C179.849228,168.953781 185.545242,177.847321 183.784409,186.776108 &#10;&#9;C181.859085,196.538895 173.184128,202.104691 161.955475,200.398102 &#10;z" stroke="none" opacity="1.000000" fill="#FFFEFC"/>
<path data-index="6" d="M287.931030,189.580109 &#10;&#9;C282.904419,199.503204 274.143829,203.314606 265.109497,199.842468 &#10;&#9;C257.150665,196.783691 252.386688,187.765030 254.397888,179.564346 &#10;&#9;C256.766602,169.905899 266.495453,163.991852 275.841522,166.529037 &#10;&#9;C285.922577,169.265717 290.951324,178.612274 287.931030,189.580109 &#10;z" stroke="none" opacity="1.000000" fill="#FFFEFC"/>
</svg>