<svg xml:space="preserve" viewBox="132.07000000000002 9.312 221.36999999999998 364.71999999999997" width="221.36999999999998" y="0px" x="0px" xmlns:xlink="http://www.w3.org/1999/xlink" xmlns="http://www.w3.org/2000/svg" id="Layer_1" version="1.1" style="max-height: 500px" height="364.71999999999997">

<path style="opacity: 1;" data-index="1" d="M188.223831,360.827209 &#10;&#9;C132.891510,339.902679 95.059555,302.050140 76.817490,246.120300 &#10;&#9;C42.974277,142.357635 109.108841,32.936497 216.483429,13.854128 &#10;&#9;C314.406128,-3.548468 407.871552,61.655167 425.133392,159.413269 &#10;&#9;C442.656097,258.648529 376.473175,352.116699 276.721954,368.718933 &#10;&#9;C246.753296,373.706818 217.329071,370.834747 188.223831,360.827209 &#10;M262.500000,247.009308 &#10;&#9;C277.990662,247.009262 293.481415,246.977325 308.971863,247.031281 &#10;&#9;C312.918304,247.045029 316.404541,246.374359 317.656097,242.019440 &#10;&#9;C318.796997,238.049576 316.720184,235.484863 313.659698,233.201340 &#10;&#9;C295.153870,219.393448 276.720245,205.488846 258.250153,191.633026 &#10;&#9;C253.351257,187.957993 253.588638,184.037766 258.929077,181.268356 &#10;&#9;C268.751587,176.174667 273.699677,166.579575 272.135864,155.658463 &#10;&#9;C270.333282,143.069794 258.707428,134.019836 245.703003,135.082245 &#10;&#9;C233.285110,136.096725 223.516800,146.842987 223.959457,159.630157 &#10;&#9;C227.710709,159.630157 231.503418,159.780334 235.268707,159.525574 &#10;&#9;C236.221558,159.461090 237.491669,158.286118 237.927231,157.313110 &#10;&#9;C240.848328,150.787476 244.384369,148.426743 249.951126,149.582413 &#10;&#9;C255.340363,150.701233 258.330780,154.365738 258.224609,159.720947 &#10;&#9;C258.116699,165.164490 254.717209,168.645508 247.924118,169.903793 &#10;&#9;C243.269470,170.765976 240.895111,173.304810 240.984940,178.086288 &#10;&#9;C241.025604,180.250870 240.810608,182.435562 241.032288,184.577942 &#10;&#9;C241.378815,187.926682 240.088196,189.976593 237.329407,192.012375 &#10;&#9;C218.617615,205.820435 200.064941,219.844223 181.481934,233.826340 &#10;&#9;C180.576538,234.507568 179.667709,235.332687 179.101944,236.292160 &#10;&#9;C175.964783,241.612488 179.642776,246.974854 186.545105,246.988876 &#10;&#9;C211.529984,247.039658 236.515015,247.009140 262.500000,247.009308 &#10;z" stroke="none" opacity="1.000000" fill="#F19D38"/>
<path data-index="2" d="M262.000000,247.009308 &#10;&#9;C236.515015,247.009140 211.529984,247.039658 186.545105,246.988876 &#10;&#9;C179.642776,246.974854 175.964783,241.612488 179.101944,236.292160 &#10;&#9;C179.667709,235.332687 180.576538,234.507568 181.481934,233.826340 &#10;&#9;C200.064941,219.844223 218.617615,205.820435 237.329407,192.012375 &#10;&#9;C240.088196,189.976593 241.378815,187.926682 241.032288,184.577942 &#10;&#9;C240.810608,182.435562 241.025604,180.250870 240.984940,178.086288 &#10;&#9;C240.895111,173.304810 243.269470,170.765976 247.924118,169.903793 &#10;&#9;C254.717209,168.645508 258.116699,165.164490 258.224609,159.720947 &#10;&#9;C258.330780,154.365738 255.340363,150.701233 249.951126,149.582413 &#10;&#9;C244.384369,148.426743 240.848328,150.787476 237.927231,157.313110 &#10;&#9;C237.491669,158.286118 236.221558,159.461090 235.268707,159.525574 &#10;&#9;C231.503418,159.780334 227.710709,159.630157 223.959457,159.630157 &#10;&#9;C223.516800,146.842987 233.285110,136.096725 245.703003,135.082245 &#10;&#9;C258.707428,134.019836 270.333282,143.069794 272.135864,155.658463 &#10;&#9;C273.699677,166.579575 268.751587,176.174667 258.929077,181.268356 &#10;&#9;C253.588638,184.037766 253.351257,187.957993 258.250153,191.633026 &#10;&#9;C276.720245,205.488846 295.153870,219.393448 313.659698,233.201340 &#10;&#9;C316.720184,235.484863 318.796997,238.049576 317.656097,242.019440 &#10;&#9;C316.404541,246.374359 312.918304,247.045029 308.971863,247.031281 &#10;&#9;C293.481415,246.977325 277.990662,247.009262 262.000000,247.009308 &#10;M217.558044,232.991776 &#10;&#9;C241.204941,232.991776 264.851837,232.991776 289.884369,232.991776 &#10;&#9;C275.168121,221.948257 261.686707,211.831406 247.993164,201.555359 &#10;&#9;C234.274521,211.861313 220.764526,222.010513 206.146957,232.991776 &#10;&#9;C210.658951,232.991776 213.621841,232.991776 217.558044,232.991776 &#10;z" stroke="none" opacity="1.000000" fill="#FFFDFB"/>
<path data-index="3" d="M217.071396,232.991776 &#10;&#9;C213.621841,232.991776 210.658951,232.991776 206.146957,232.991776 &#10;&#9;C220.764526,222.010513 234.274521,211.861313 247.993164,201.555359 &#10;&#9;C261.686707,211.831406 275.168121,221.948257 289.884369,232.991776 &#10;&#9;C264.851837,232.991776 241.204941,232.991776 217.071396,232.991776 &#10;z" stroke="none" opacity="1.000000" fill="#F19D39"/>
</svg>