<svg xml:space="preserve" viewBox="101.136 3.72 192.472 363.072" width="192.472" y="0px" x="0px" xmlns:xlink="http://www.w3.org/1999/xlink" xmlns="http://www.w3.org/2000/svg" id="Layer_1" version="1.1" style="max-height: 500px" height="363.072">

<path style="opacity: 1;" data-index="1" d="M127.068054,350.004456 &#10;&#9;C72.471275,324.727478 37.696617,283.288330 23.626808,225.147217 &#10;&#9;C0.191372,128.304214 64.342529,28.481230 162.193985,8.872336 &#10;&#9;C259.446564,-10.616545 351.795746,48.662777 374.557648,145.189423 &#10;&#9;C397.398590,242.051544 333.474121,341.516266 235.941040,361.149567 &#10;&#9;C198.566071,368.673065 162.455170,365.041199 127.068054,350.004456 &#10;M230.872116,175.680740 &#10;&#9;C237.666962,184.127792 241.260605,193.662720 241.209763,204.612259 &#10;&#9;C241.133209,221.099823 241.283737,237.588440 241.335114,254.076599 &#10;&#9;C241.342789,256.536163 241.336182,258.995819 241.336182,262.005707 &#10;&#9;C244.967499,262.005707 248.084473,262.059692 251.199020,261.995270 &#10;&#9;C259.428558,261.825043 263.801971,257.975891 264.756134,249.770721 &#10;&#9;C265.639587,242.173691 266.239532,234.544052 267.002777,226.932602 &#10;&#9;C269.159393,205.425568 271.346741,183.921616 273.498962,162.414139 &#10;&#9;C274.355377,153.855515 275.151398,145.290848 276.037079,136.082993 &#10;&#9;C264.171478,136.082993 252.785904,136.082993 240.866119,136.082993 &#10;&#9;C240.866119,126.419426 240.866119,117.354652 240.866119,108.309692 &#10;&#9;C236.063721,108.309692 231.819504,108.309692 226.986816,108.309692 &#10;&#9;C226.986816,117.669746 226.986816,126.730255 226.986816,136.267502 &#10;&#9;C215.155273,136.267502 203.914200,136.267502 192.409317,136.267502 &#10;&#9;C192.939545,140.241257 193.844070,143.696472 193.748871,147.123932 &#10;&#9;C193.621719,151.702454 195.879974,153.388474 199.853806,154.661575 &#10;&#9;C211.955231,158.538620 222.398529,165.069077 230.872116,175.680740 &#10;M148.500000,206.003159 &#10;&#9;C174.585876,206.003159 200.671753,206.003159 227.042252,206.003159 &#10;&#9;C227.141937,195.832687 224.089890,187.518250 217.580597,180.496735 &#10;&#9;C208.684570,170.900696 197.304321,166.191742 184.642136,164.631973 &#10;&#9;C166.702560,162.422134 149.746994,165.119156 135.305008,176.953934 &#10;&#9;C126.348839,184.293243 122.048805,193.942520 122.163361,206.003159 &#10;&#9;C130.910202,206.003159 139.205109,206.003159 148.500000,206.003159 &#10;M187.500000,234.000198 &#10;&#9;C200.600128,234.000198 213.700272,234.000198 226.889221,234.000198 &#10;&#9;C226.889221,229.060242 226.889221,224.799606 226.889221,220.347656 &#10;&#9;C191.934189,220.347656 157.233093,220.347656 122.404572,220.347656 &#10;&#9;C122.404572,224.951447 122.404572,229.205017 122.404572,234.000198 &#10;&#9;C143.943390,234.000198 165.221695,234.000198 187.500000,234.000198 &#10;M221.384872,247.999527 &#10;&#9;C188.318588,247.999527 155.252319,247.999527 122.241638,247.999527 &#10;&#9;C121.595680,258.655518 123.521446,261.932190 130.546631,261.954865 &#10;&#9;C160.039139,262.050140 189.532272,262.033661 219.024887,261.953033 &#10;&#9;C224.438370,261.938232 226.868713,259.326782 227.117096,253.953598 &#10;&#9;C227.199921,252.162033 227.130203,250.363434 227.130203,248.280380 &#10;&#9;C225.269882,248.170990 223.811951,248.085266 221.384872,247.999527 &#10;z" stroke="none" opacity="1.000000" fill="#EC6964"/>
<path style="opacity: 1;" data-index="2" d="M230.644287,175.405441 &#10;&#9;C222.398529,165.069077 211.955231,158.538620 199.853806,154.661575 &#10;&#9;C195.879974,153.388474 193.621719,151.702454 193.748871,147.123932 &#10;&#9;C193.844070,143.696472 192.939545,140.241257 192.409317,136.267502 &#10;&#9;C203.914200,136.267502 215.155273,136.267502 226.986816,136.267502 &#10;&#9;C226.986816,126.730255 226.986816,117.669746 226.986816,108.309692 &#10;&#9;C231.819504,108.309692 236.063721,108.309692 240.866119,108.309692 &#10;&#9;C240.866119,117.354652 240.866119,126.419426 240.866119,136.082993 &#10;&#9;C252.785904,136.082993 264.171478,136.082993 276.037079,136.082993 &#10;&#9;C275.151398,145.290848 274.355377,153.855515 273.498962,162.414139 &#10;&#9;C271.346741,183.921616 269.159393,205.425568 267.002777,226.932602 &#10;&#9;C266.239532,234.544052 265.639587,242.173691 264.756134,249.770721 &#10;&#9;C263.801971,257.975891 259.428558,261.825043 251.199020,261.995270 &#10;&#9;C248.084473,262.059692 244.967499,262.005707 241.336182,262.005707 &#10;&#9;C241.336182,258.995819 241.342789,256.536163 241.335114,254.076599 &#10;&#9;C241.283737,237.588440 241.133209,221.099823 241.209763,204.612259 &#10;&#9;C241.260605,193.662720 237.666962,184.127792 230.644287,175.405441 &#10;z" stroke="none" opacity="1.000000" fill="#FFFCFC"/>
<path style="opacity: 1;" data-index="3" d="M148.000000,206.003159 &#10;&#9;C139.205109,206.003159 130.910202,206.003159 122.163361,206.003159 &#10;&#9;C122.048805,193.942520 126.348839,184.293243 135.305008,176.953934 &#10;&#9;C149.746994,165.119156 166.702560,162.422134 184.642136,164.631973 &#10;&#9;C197.304321,166.191742 208.684570,170.900696 217.580597,180.496735 &#10;&#9;C224.089890,187.518250 227.141937,195.832687 227.042252,206.003159 &#10;&#9;C200.671753,206.003159 174.585876,206.003159 148.000000,206.003159 &#10;z" stroke="none" opacity="1.000000" fill="#FFFEFE"/>
<path data-index="4" d="M187.000000,234.000198 &#10;&#9;C165.221695,234.000198 143.943390,234.000198 122.404572,234.000198 &#10;&#9;C122.404572,229.205017 122.404572,224.951447 122.404572,220.347656 &#10;&#9;C157.233093,220.347656 191.934189,220.347656 226.889221,220.347656 &#10;&#9;C226.889221,224.799606 226.889221,229.060242 226.889221,234.000198 &#10;&#9;C213.700272,234.000198 200.600128,234.000198 187.000000,234.000198 &#10;z" stroke="none" opacity="1.000000" fill="#FFFFFF"/>
<path data-index="5" d="M221.869446,247.999542 &#10;&#9;C223.811951,248.085266 225.269882,248.170990 227.130203,248.280380 &#10;&#9;C227.130203,250.363434 227.199921,252.162033 227.117096,253.953598 &#10;&#9;C226.868713,259.326782 224.438370,261.938232 219.024887,261.953033 &#10;&#9;C189.532272,262.033661 160.039139,262.050140 130.546631,261.954865 &#10;&#9;C123.521446,261.932190 121.595680,258.655518 122.241638,247.999527 &#10;&#9;C155.252319,247.999527 188.318588,247.999527 221.869446,247.999542 &#10;z" stroke="none" opacity="1.000000" fill="#FFFFFF"/>
</svg>