<svg xml:space="preserve" viewBox="130.75199999999998 17.776 205.208 365.216" width="205.208" y="0px" x="0px" xmlns:xlink="http://www.w3.org/1999/xlink" xmlns="http://www.w3.org/2000/svg" id="Layer_1" version="1.1" style="max-height: 500px" height="365.216">

<path style="opacity: 1;" data-index="1" d="M239.974213,379.998230 &#10;&#9;C149.717331,379.970825 75.801743,317.671509 60.282917,228.963226 &#10;&#9;C44.016003,135.978745 107.525459,42.887440 200.098236,24.023817 &#10;&#9;C297.886505,4.097426 390.560394,63.157944 413.512848,160.031631 &#10;&#9;C436.444641,256.818085 372.723328,356.449677 275.127167,375.954651 &#10;&#9;C263.758789,378.226685 252.029648,378.693634 239.974213,379.998230 &#10;M206.500000,269.999939 &#10;&#9;C234.655289,269.999939 262.810577,270.006439 290.965851,269.996826 &#10;&#9;C302.831451,269.992767 307.991516,264.856934 307.996521,253.041824 &#10;&#9;C308.007568,227.052322 308.006470,201.062805 307.997040,175.073303 &#10;&#9;C307.992706,163.179077 302.872528,158.019714 291.080963,158.002457 &#10;&#9;C282.814484,157.990356 274.548004,158.000122 265.999207,158.000122 &#10;&#9;C265.999207,153.279037 266.061554,149.139206 265.986511,145.001877 &#10;&#9;C265.818268,135.727997 260.277893,130.134903 251.007431,130.023148 &#10;&#9;C242.345520,129.918732 233.680420,129.920609 225.018448,130.022568 &#10;&#9;C215.735764,130.131821 210.184570,135.712692 210.014221,144.976013 &#10;&#9;C209.935837,149.238373 210.000870,153.503372 210.000870,158.000839 &#10;&#9;C200.563553,158.000839 191.753586,157.915848 182.946014,158.024200 &#10;&#9;C173.716263,158.137726 168.054733,163.771927 168.028427,173.048309 &#10;&#9;C167.950943,200.370392 167.948364,227.692993 168.029938,255.015045 &#10;&#9;C168.057602,264.276825 173.735336,269.855469 183.009354,269.979034 &#10;&#9;C190.505005,270.078888 198.003021,269.999695 206.500000,269.999939 &#10;z" stroke="none" opacity="1.000000" fill="#7C1D4E"/>
<path style="opacity: 1;" data-index="2" d="M206.000000,269.999939 &#10;&#9;C198.003021,269.999695 190.505005,270.078888 183.009354,269.979034 &#10;&#9;C173.735336,269.855469 168.057602,264.276825 168.029938,255.015045 &#10;&#9;C167.948364,227.692993 167.950943,200.370392 168.028427,173.048309 &#10;&#9;C168.054733,163.771927 173.716263,158.137726 182.946014,158.024200 &#10;&#9;C191.753586,157.915848 200.563553,158.000839 210.000870,158.000839 &#10;&#9;C210.000870,153.503372 209.935837,149.238373 210.014221,144.976013 &#10;&#9;C210.184570,135.712692 215.735764,130.131821 225.018448,130.022568 &#10;&#9;C233.680420,129.920609 242.345520,129.918732 251.007431,130.023148 &#10;&#9;C260.277893,130.134903 265.818268,135.727997 265.986511,145.001877 &#10;&#9;C266.061554,149.139206 265.999207,153.279037 265.999207,158.000122 &#10;&#9;C274.548004,158.000122 282.814484,157.990356 291.080963,158.002457 &#10;&#9;C302.872528,158.019714 307.992706,163.179077 307.997040,175.073303 &#10;&#9;C308.006470,201.062805 308.007568,227.052322 307.996521,253.041824 &#10;&#9;C307.991516,264.856934 302.831451,269.992767 290.965851,269.996826 &#10;&#9;C262.810577,270.006439 234.655289,269.999939 206.000000,269.999939 &#10;M256.481934,220.999359 &#10;&#9;C259.583130,220.999359 262.684326,220.999359 265.651245,220.999359 &#10;&#9;C265.651245,215.966019 265.651245,211.570618 265.651245,206.715729 &#10;&#9;C258.570831,206.715729 251.833923,206.715729 244.831940,206.715729 &#10;&#9;C244.831940,199.634521 244.831940,193.020782 244.831940,186.261398 &#10;&#9;C240.142792,186.261398 235.748672,186.261398 230.888763,186.261398 &#10;&#9;C230.888763,193.247574 230.888763,199.983337 230.888763,207.170547 &#10;&#9;C223.691574,207.170547 216.953445,207.170547 210.351868,207.170547 &#10;&#9;C210.351868,212.040283 210.351868,216.435760 210.351868,221.290405 &#10;&#9;C217.435410,221.290405 224.171921,221.290405 231.174210,221.290405 &#10;&#9;C231.174210,228.371841 231.174210,234.985535 231.174210,241.735489 &#10;&#9;C235.863678,241.735489 240.257874,241.735489 245.117401,241.735489 &#10;&#9;C245.117401,234.745743 245.117401,228.010956 245.117401,220.999359 &#10;&#9;C248.889069,220.999359 252.194489,220.999359 256.481934,220.999359 &#10;M225.749298,144.012268 &#10;&#9;C225.170105,144.619080 224.114136,145.207184 224.089493,145.835739 &#10;&#9;C223.935410,149.763229 224.011703,153.699753 224.011703,157.758545 &#10;&#9;C233.533188,157.758545 242.569168,157.758545 251.745026,157.758545 &#10;&#9;C251.745026,153.132324 251.745026,148.749725 251.745026,144.441391 &#10;&#9;C251.199448,144.252335 250.903152,144.060837 250.606094,144.059677 &#10;&#9;C242.640244,144.028519 234.674332,144.016907 225.749298,144.012268 &#10;z" stroke="none" opacity="1.000000" fill="#FFFFFF"/>
<path data-index="3" d="M255.990921,220.999359 &#10;&#9;C252.194489,220.999359 248.889069,220.999359 245.117401,220.999359 &#10;&#9;C245.117401,228.010956 245.117401,234.745743 245.117401,241.735489 &#10;&#9;C240.257874,241.735489 235.863678,241.735489 231.174210,241.735489 &#10;&#9;C231.174210,234.985535 231.174210,228.371841 231.174210,221.290405 &#10;&#9;C224.171921,221.290405 217.435410,221.290405 210.351868,221.290405 &#10;&#9;C210.351868,216.435760 210.351868,212.040283 210.351868,207.170547 &#10;&#9;C216.953445,207.170547 223.691574,207.170547 230.888763,207.170547 &#10;&#9;C230.888763,199.983337 230.888763,193.247574 230.888763,186.261398 &#10;&#9;C235.748672,186.261398 240.142792,186.261398 244.831940,186.261398 &#10;&#9;C244.831940,193.020782 244.831940,199.634521 244.831940,206.715729 &#10;&#9;C251.833923,206.715729 258.570831,206.715729 265.651245,206.715729 &#10;&#9;C265.651245,211.570618 265.651245,215.966019 265.651245,220.999359 &#10;&#9;C262.684326,220.999359 259.583130,220.999359 255.990921,220.999359 &#10;z" stroke="none" opacity="1.000000" fill="#7C1D4E"/>
<path data-index="4" d="M226.228851,144.007126 &#10;&#9;C234.674332,144.016907 242.640244,144.028519 250.606094,144.059677 &#10;&#9;C250.903152,144.060837 251.199448,144.252335 251.745026,144.441391 &#10;&#9;C251.745026,148.749725 251.745026,153.132324 251.745026,157.758545 &#10;&#9;C242.569168,157.758545 233.533188,157.758545 224.011703,157.758545 &#10;&#9;C224.011703,153.699753 223.935410,149.763229 224.089493,145.835739 &#10;&#9;C224.114136,145.207184 225.170105,144.619080 226.228851,144.007126 &#10;z" stroke="none" opacity="1.000000" fill="#7C1D4E"/>
</svg>