<svg xml:space="preserve" viewBox="119.99199999999999 20.176 188.256 342.992" width="188.256" y="0px" x="0px" xmlns:xlink="http://www.w3.org/1999/xlink" xmlns="http://www.w3.org/2000/svg" id="Layer_1" version="1.1" style="max-height: 500px" height="342.992">

<path data-index="1" d="M223.260193,361.307190 &#10;&#9;C138.242035,365.344269 61.881088,303.149658 48.889507,219.689743 &#10;&#9;C34.594437,127.855988 92.474167,43.169487 183.662766,25.584200 &#10;&#9;C280.836426,6.844721 363.618866,70.549416 381.881409,155.583252 &#10;&#9;C402.142242,249.921448 342.275787,340.070221 247.521301,358.602448 &#10;&#9;C239.713089,360.129608 231.662460,360.417389 223.260193,361.307190 &#10;M242.628204,252.149811 &#10;&#9;C252.781616,248.116730 261.106720,241.466919 267.748810,233.031967 &#10;&#9;C294.468597,199.099884 283.089081,150.696945 243.857330,132.255203 &#10;&#9;C220.879196,121.453835 198.284668,123.801437 177.824387,138.469482 &#10;&#9;C157.539215,153.011993 148.115967,173.579330 150.710785,198.528595 &#10;&#9;C155.338943,243.028397 202.231094,270.525269 242.628204,252.149811 &#10;z" stroke="none" opacity="1.000000" fill="#424242"/>
<path data-index="2" d="M242.295563,252.340042 &#10;&#9;C202.231094,270.525269 155.338943,243.028397 150.710785,198.528595 &#10;&#9;C148.115967,173.579330 157.539215,153.011993 177.824387,138.469482 &#10;&#9;C198.284668,123.801437 220.879196,121.453835 243.857330,132.255203 &#10;&#9;C283.089081,150.696945 294.468597,199.099884 267.748810,233.031967 &#10;&#9;C261.106720,241.466919 252.781616,248.116730 242.295563,252.340042 &#10;M222.871948,205.499771 &#10;&#9;C222.871948,198.893570 222.871948,192.287369 222.871948,185.471893 &#10;&#9;C218.118958,185.471893 213.928833,185.471893 209.662811,185.471893 &#10;&#9;C209.662811,198.734238 209.662811,211.651520 209.662811,224.702850 &#10;&#9;C214.118896,224.702850 218.328857,224.702850 222.871918,224.702850 &#10;&#9;C222.871918,218.422897 222.871918,212.461166 222.871948,205.499771 &#10;M222.749405,171.146683 &#10;&#9;C222.749405,167.217773 222.749405,163.288864 222.749405,159.334930 &#10;&#9;C218.115036,159.334930 213.924362,159.334930 209.815002,159.334930 &#10;&#9;C209.815002,163.737320 209.815002,167.772827 209.815002,171.832199 &#10;&#9;C214.173080,171.832199 218.142410,171.832199 222.749405,171.146683 &#10;z" stroke="none" opacity="1.000000" fill="#FEFEFE"/>
<path data-index="3" d="M222.871933,205.999603 &#10;&#9;C222.871918,212.461166 222.871918,218.422897 222.871918,224.702850 &#10;&#9;C218.328857,224.702850 214.118896,224.702850 209.662811,224.702850 &#10;&#9;C209.662811,211.651520 209.662811,198.734238 209.662811,185.471893 &#10;&#9;C213.928833,185.471893 218.118958,185.471893 222.871948,185.471893 &#10;&#9;C222.871948,192.287369 222.871948,198.893570 222.871933,205.999603 &#10;z" stroke="none" opacity="1.000000" fill="#4D4D4D"/>
<path data-index="4" d="M222.430573,171.489441 &#10;&#9;C218.142410,171.832199 214.173080,171.832199 209.815002,171.832199 &#10;&#9;C209.815002,167.772827 209.815002,163.737320 209.815002,159.334930 &#10;&#9;C213.924362,159.334930 218.115036,159.334930 222.749405,159.334930 &#10;&#9;C222.749405,163.288864 222.749405,167.217773 222.430573,171.489441 &#10;z" stroke="none" opacity="1.000000" fill="#4C4C4C"/>
</svg>