<svg xml:space="preserve" viewBox="125.55000000000001 23.408 196.65 367.004" width="196.65" y="0px" x="0px" xmlns:xlink="http://www.w3.org/1999/xlink" xmlns="http://www.w3.org/2000/svg" id="Layer_1" version="1.1" style="max-height: 500px" height="367.004">

<path data-index="1" d="M286.418457,376.446655 &#10;&#9;C188.253357,412.771881 82.825493,359.706512 51.654690,263.107422 &#10;&#9;C18.217310,159.484161 84.282135,49.722961 191.549057,30.834354 &#10;&#9;C290.723297,13.370785 384.455444,79.930397 400.783478,179.412659 &#10;&#9;C414.541626,263.237183 366.295013,346.542328 286.418457,376.446655 &#10;M274.006775,173.505234 &#10;&#9;C269.155457,159.384583 268.613831,158.994675 253.850525,158.994675 &#10;&#9;C231.684937,158.994690 209.519333,158.983459 187.353760,159.000549 &#10;&#9;C179.137726,159.006882 176.326874,160.908096 173.607132,168.578140 &#10;&#9;C170.332047,177.814377 167.124802,187.076843 164.059082,196.384247 &#10;&#9;C162.510025,201.087173 160.313751,205.885559 160.179626,210.690186 &#10;&#9;C159.705414,227.676117 159.953049,244.683533 160.014664,261.682495 &#10;&#9;C160.041550,269.100403 162.253311,271.010925 170.315765,271.005249 &#10;&#9;C178.781845,270.999298 180.872589,269.140656 181.014587,261.550934 &#10;&#9;C181.041397,260.118225 181.188538,258.687744 181.273712,257.357117 &#10;&#9;C209.382828,257.357117 237.117096,257.357117 264.994446,257.357117 &#10;&#9;C264.994446,258.706024 264.982880,259.703186 264.996277,260.699982 &#10;&#9;C265.110992,269.245239 267.020538,271.059418 275.833405,271.005188 &#10;&#9;C284.117432,270.954193 285.998566,269.029053 286.002869,260.533661 &#10;&#9;C286.011078,244.367783 286.052582,228.201614 285.954468,212.036331 &#10;&#9;C285.939636,209.597046 285.584595,207.048187 284.809265,204.744400 &#10;&#9;C281.378815,194.551178 277.737366,184.428955 274.006775,173.505234 &#10;z" stroke="none" opacity="1.000000" fill="#74574A"/>
<path data-index="2" d="M274.089539,173.893127 &#10;&#9;C277.737366,184.428955 281.378815,194.551178 284.809265,204.744400 &#10;&#9;C285.584595,207.048187 285.939636,209.597046 285.954468,212.036331 &#10;&#9;C286.052582,228.201614 286.011078,244.367783 286.002869,260.533661 &#10;&#9;C285.998566,269.029053 284.117432,270.954193 275.833405,271.005188 &#10;&#9;C267.020538,271.059418 265.110992,269.245239 264.996277,260.699982 &#10;&#9;C264.982880,259.703186 264.994446,258.706024 264.994446,257.357117 &#10;&#9;C237.117096,257.357117 209.382828,257.357117 181.273712,257.357117 &#10;&#9;C181.188538,258.687744 181.041397,260.118225 181.014587,261.550934 &#10;&#9;C180.872589,269.140656 178.781845,270.999298 170.315765,271.005249 &#10;&#9;C162.253311,271.010925 160.041550,269.100403 160.014664,261.682495 &#10;&#9;C159.953049,244.683533 159.705414,227.676117 160.179626,210.690186 &#10;&#9;C160.313751,205.885559 162.510025,201.087173 164.059082,196.384247 &#10;&#9;C167.124802,187.076843 170.332047,177.814377 173.607132,168.578140 &#10;&#9;C176.326874,160.908096 179.137726,159.006882 187.353760,159.000549 &#10;&#9;C209.519333,158.983459 231.684937,158.994690 253.850525,158.994675 &#10;&#9;C268.613831,158.994675 269.155457,159.384583 274.089539,173.893127 &#10;M270.488708,200.960388 &#10;&#9;C270.456177,199.546890 270.743866,198.033234 270.338226,196.736450 &#10;&#9;C268.020996,189.328751 265.325562,182.033371 263.201477,174.573746 &#10;&#9;C262.119751,170.774857 260.502869,169.403458 256.339172,169.455200 &#10;&#9;C235.372208,169.715698 214.400223,169.574783 193.430008,169.574783 &#10;&#9;C184.492233,169.574783 184.490265,169.574142 181.682953,177.980881 &#10;&#9;C179.158920,185.539307 176.639832,193.099380 174.007874,200.990570 &#10;&#9;C206.423721,200.990570 238.042267,200.990570 270.488708,200.960388 &#10;M178.687897,217.075836 &#10;&#9;C172.566055,221.991623 172.627060,230.345215 178.812424,234.123230 &#10;&#9;C183.315552,236.873718 189.104462,236.152420 192.420486,232.427673 &#10;&#9;C195.531876,228.932831 195.597137,223.361237 192.576324,219.125320 &#10;&#9;C189.752701,215.165878 185.037964,214.284592 178.687897,217.075836 &#10;M251.889832,229.319214 &#10;&#9;C253.228333,230.936096 254.289001,232.965958 255.959305,234.089615 &#10;&#9;C260.336273,237.034180 266.252777,236.096848 269.487457,232.347198 &#10;&#9;C272.555023,228.791245 272.568970,223.235062 269.520844,219.035645 &#10;&#9;C266.959717,215.507156 261.702606,214.156769 257.527466,215.954971 &#10;&#9;C252.400833,218.162964 250.414902,222.509064 251.889832,229.319214 &#10;z" stroke="none" opacity="1.000000" fill="#FDFDFD"/>
<path data-index="3" d="M270.074768,200.975479 &#10;&#9;C238.042267,200.990570 206.423721,200.990570 174.007874,200.990570 &#10;&#9;C176.639832,193.099380 179.158920,185.539307 181.682953,177.980881 &#10;&#9;C184.490265,169.574142 184.492233,169.574783 193.430008,169.574783 &#10;&#9;C214.400223,169.574783 235.372208,169.715698 256.339172,169.455200 &#10;&#9;C260.502869,169.403458 262.119751,170.774857 263.201477,174.573746 &#10;&#9;C265.325562,182.033371 268.020996,189.328751 270.338226,196.736450 &#10;&#9;C270.743866,198.033234 270.456177,199.546890 270.074768,200.975479 &#10;z" stroke="none" opacity="1.000000" fill="#74574A"/>
<path data-index="4" d="M179.013153,216.863373 &#10;&#9;C185.037964,214.284592 189.752701,215.165878 192.576324,219.125320 &#10;&#9;C195.597137,223.361237 195.531876,228.932831 192.420486,232.427673 &#10;&#9;C189.104462,236.152420 183.315552,236.873718 178.812424,234.123230 &#10;&#9;C172.627060,230.345215 172.566055,221.991623 179.013153,216.863373 &#10;z" stroke="none" opacity="1.000000" fill="#76594C"/>
<path data-index="5" d="M251.829865,228.937164 &#10;&#9;C250.414902,222.509064 252.400833,218.162964 257.527466,215.954971 &#10;&#9;C261.702606,214.156769 266.959717,215.507156 269.520844,219.035645 &#10;&#9;C272.568970,223.235062 272.555023,228.791245 269.487457,232.347198 &#10;&#9;C266.252777,236.096848 260.336273,237.034180 255.959305,234.089615 &#10;&#9;C254.289001,232.965958 253.228333,230.936096 251.829865,228.937164 &#10;z" stroke="none" opacity="1.000000" fill="#76594C"/>
</svg>