<svg xml:space="preserve" viewBox="119.46400000000001 15.276 197.508 364.212" width="197.508" y="0px" x="0px" xmlns:xlink="http://www.w3.org/1999/xlink" xmlns="http://www.w3.org/2000/svg" id="Layer_1" version="1.1" style="max-height: 500px" height="364.212">

<path data-index="1" d="M148.454056,362.621399 &#10;&#9;C88.934280,335.397980 52.900414,289.903687 41.401218,225.930862 &#10;&#9;C24.652676,132.754639 88.854851,39.472046 181.660858,20.943729 &#10;&#9;C279.325806,1.445345 371.330109,60.146072 394.398132,156.674667 &#10;&#9;C417.584686,253.699341 353.835297,353.283630 255.980560,373.146698 &#10;&#9;C219.136551,380.625488 183.476456,377.071228 148.454056,362.621399 &#10;M275.002777,227.500000 &#10;&#9;C275.002625,199.181061 275.031555,170.862076 274.986572,142.543213 &#10;&#9;C274.970917,132.683578 269.384949,127.038017 259.568634,127.017448 &#10;&#9;C232.415878,126.960564 205.262863,126.956497 178.110138,127.020531 &#10;&#9;C168.581711,127.043007 163.034027,132.653015 163.019699,142.296310 &#10;&#9;C162.965454,178.777679 162.968811,215.259232 163.017563,251.740601 &#10;&#9;C163.030365,261.316284 168.604279,266.952026 178.147064,266.976837 &#10;&#9;C205.466324,267.047913 232.786026,267.047272 260.105286,266.976166 &#10;&#9;C269.303925,266.952240 274.866180,261.276794 274.981750,251.987808 &#10;&#9;C275.079132,244.159668 275.002411,236.329346 275.002777,227.500000 &#10;z" stroke="none" opacity="1.000000" fill="#9031AA"/>
<path data-index="2" d="M275.002777,228.000000 &#10;&#9;C275.002411,236.329346 275.079132,244.159668 274.981750,251.987808 &#10;&#9;C274.866180,261.276794 269.303925,266.952240 260.105286,266.976166 &#10;&#9;C232.786026,267.047272 205.466324,267.047913 178.147064,266.976837 &#10;&#9;C168.604279,266.952026 163.030365,261.316284 163.017563,251.740601 &#10;&#9;C162.968811,215.259232 162.965454,178.777679 163.019699,142.296310 &#10;&#9;C163.034027,132.653015 168.581711,127.043007 178.110138,127.020531 &#10;&#9;C205.262863,126.956497 232.415878,126.960564 259.568634,127.017448 &#10;&#9;C269.384949,127.038017 274.970917,132.683578 274.986572,142.543213 &#10;&#9;C275.031555,170.862076 275.002625,199.181061 275.002777,228.000000 &#10;M240.360443,174.968430 &#10;&#9;C239.177200,174.363464 238.024277,173.687943 236.806107,173.164230 &#10;&#9;C220.921463,166.335052 205.893173,167.816544 192.433807,178.766098 &#10;&#9;C178.961563,189.726135 174.202484,207.268784 178.953827,223.217529 &#10;&#9;C184.192505,240.802216 203.216461,255.851746 225.849350,252.270020 &#10;&#9;C245.510056,249.158615 262.834534,230.347931 260.679047,207.176666 &#10;&#9;C259.389099,193.309692 252.256378,183.027695 240.360443,174.968430 &#10;M189.930786,144.764496 &#10;&#9;C187.593643,140.461487 184.154724,140.147644 180.292877,142.357422 &#10;&#9;C176.831696,144.337952 176.327972,147.346664 177.912354,150.882553 &#10;&#9;C179.556015,154.550690 182.417984,155.690079 186.018875,154.440826 &#10;&#9;C190.294846,152.957367 191.942673,149.931076 189.930786,144.764496 &#10;M200.860245,153.737320 &#10;&#9;C201.630905,154.038971 202.559982,154.778915 203.145187,154.567413 &#10;&#9;C205.870560,153.582474 209.327866,153.014801 210.969376,151.019455 &#10;&#9;C213.370621,148.100632 211.918457,143.963806 208.905563,142.488174 &#10;&#9;C206.636749,141.376984 202.480606,141.728836 200.379639,143.183884 &#10;&#9;C196.505066,145.867249 197.878433,149.818588 200.860245,153.737320 &#10;z" stroke="none" opacity="1.000000" fill="#FEFDFE"/>
<path data-index="3" d="M240.699188,175.117249 &#10;&#9;C252.256378,183.027695 259.389099,193.309692 260.679047,207.176666 &#10;&#9;C262.834534,230.347931 245.510056,249.158615 225.849350,252.270020 &#10;&#9;C203.216461,255.851746 184.192505,240.802216 178.953827,223.217529 &#10;&#9;C174.202484,207.268784 178.961563,189.726135 192.433807,178.766098 &#10;&#9;C205.893173,167.816544 220.921463,166.335052 236.806107,173.164230 &#10;&#9;C238.024277,173.687943 239.177200,174.363464 240.699188,175.117249 &#10;M203.168182,226.755936 &#10;&#9;C201.958603,228.053253 200.749039,229.350586 199.558807,230.627151 &#10;&#9;C210.192368,241.689377 227.665207,241.730743 238.691010,231.012924 &#10;&#9;C249.705307,220.306290 249.791245,202.290237 238.373734,191.351135 &#10;&#9;C226.818253,202.973099 215.248184,214.609741 203.168182,226.755936 &#10;z" stroke="none" opacity="1.000000" fill="#9032AA"/>
<path data-index="4" d="M190.077789,145.122208 &#10;&#9;C191.942673,149.931076 190.294846,152.957367 186.018875,154.440826 &#10;&#9;C182.417984,155.690079 179.556015,154.550690 177.912354,150.882553 &#10;&#9;C176.327972,147.346664 176.831696,144.337952 180.292877,142.357422 &#10;&#9;C184.154724,140.147644 187.593643,140.461487 190.077789,145.122208 &#10;z" stroke="none" opacity="1.000000" fill="#963DAF"/>
<path data-index="5" d="M200.569916,153.481842 &#10;&#9;C197.878433,149.818588 196.505066,145.867249 200.379639,143.183884 &#10;&#9;C202.480606,141.728836 206.636749,141.376984 208.905563,142.488174 &#10;&#9;C211.918457,143.963806 213.370621,148.100632 210.969376,151.019455 &#10;&#9;C209.327866,153.014801 205.870560,153.582474 203.145187,154.567413 &#10;&#9;C202.559982,154.778915 201.630905,154.038971 200.569916,153.481842 &#10;z" stroke="none" opacity="1.000000" fill="#963DAF"/>
<path data-index="6" d="M203.423157,226.501160 &#10;&#9;C215.248184,214.609741 226.818253,202.973099 238.373734,191.351135 &#10;&#9;C249.791245,202.290237 249.705307,220.306290 238.691010,231.012924 &#10;&#9;C227.665207,241.730743 210.192368,241.689377 199.558807,230.627151 &#10;&#9;C200.749039,229.350586 201.958603,228.053253 203.423157,226.501160 &#10;z" stroke="none" opacity="1.000000" fill="#FCF9FD"/>
</svg>