<svg xml:space="preserve" viewBox="115.75200000000001 19.296 191.648 363.408" width="191.648" y="0px" x="0px" xmlns:xlink="http://www.w3.org/1999/xlink" xmlns="http://www.w3.org/2000/svg" id="Layer_1" version="1.1" style="max-height: 500px" height="363.408">

<path style="opacity: 1;" data-index="1" d="M272.968842,369.996582 &#10;&#9;C167.825729,408.500214 53.108154,342.368744 33.838840,232.466858 &#10;&#9;C16.432329,133.189377 82.428970,40.162724 182.271286,23.241455 &#10;&#9;C278.062653,7.006738 371.795319,73.449615 388.105988,169.148422 &#10;&#9;C402.967499,256.344635 356.713348,337.251190 272.968842,369.996582 &#10;M253.499847,235.999802 &#10;&#9;C260.263000,235.999802 267.026154,235.999802 274.243713,235.999802 &#10;&#9;C274.243713,243.385315 274.243713,250.125671 274.243713,256.783508 &#10;&#9;C278.999695,256.783508 283.280212,256.783508 287.782990,256.783508 &#10;&#9;C287.782990,234.619583 288.461365,212.641571 287.533600,190.731598 &#10;&#9;C286.959045,177.163818 275.849609,167.468384 262.252136,166.248932 &#10;&#9;C257.454590,165.818665 252.596573,166.017044 247.766037,166.008926 &#10;&#9;C233.315277,165.984650 218.864426,166.000198 203.943619,166.000198 &#10;&#9;C203.943619,182.524460 203.943619,198.591446 203.943619,214.700653 &#10;&#9;C185.071381,214.700653 166.675629,214.700653 147.808777,214.700653 &#10;&#9;C147.808777,193.671066 147.808777,172.936859 147.808777,152.367874 &#10;&#9;C142.930893,152.367874 138.532532,152.367874 134.224274,152.367874 &#10;&#9;C134.224274,187.347046 134.224274,221.958115 134.224274,256.741974 &#10;&#9;C138.846146,256.741974 143.241684,256.741974 148.109344,256.741974 &#10;&#9;C148.109344,249.756531 148.109344,243.018509 148.109344,235.999802 &#10;&#9;C183.222260,235.999802 217.861084,235.999802 253.499847,235.999802 &#10;M173.875580,207.838196 &#10;&#9;C186.309006,208.276184 195.481125,200.832687 196.827499,189.211914 &#10;&#9;C198.055710,178.611115 190.800201,168.665451 180.267197,166.511459 &#10;&#9;C168.807266,164.167892 157.900848,171.280121 155.525589,182.645798 &#10;&#9;C153.011246,194.677048 160.207047,204.983917 173.875580,207.838196 &#10;z" stroke="none" opacity="1.000000" fill="#A82E26"/>
<path data-index="2" d="M252.999878,235.999802 &#10;&#9;C217.861084,235.999802 183.222260,235.999802 148.109344,235.999802 &#10;&#9;C148.109344,243.018509 148.109344,249.756531 148.109344,256.741974 &#10;&#9;C143.241684,256.741974 138.846146,256.741974 134.224274,256.741974 &#10;&#9;C134.224274,221.958115 134.224274,187.347046 134.224274,152.367874 &#10;&#9;C138.532532,152.367874 142.930893,152.367874 147.808777,152.367874 &#10;&#9;C147.808777,172.936859 147.808777,193.671066 147.808777,214.700653 &#10;&#9;C166.675629,214.700653 185.071381,214.700653 203.943619,214.700653 &#10;&#9;C203.943619,198.591446 203.943619,182.524460 203.943619,166.000198 &#10;&#9;C218.864426,166.000198 233.315277,165.984650 247.766037,166.008926 &#10;&#9;C252.596573,166.017044 257.454590,165.818665 262.252136,166.248932 &#10;&#9;C275.849609,167.468384 286.959045,177.163818 287.533600,190.731598 &#10;&#9;C288.461365,212.641571 287.782990,234.619583 287.782990,256.783508 &#10;&#9;C283.280212,256.783508 278.999695,256.783508 274.243713,256.783508 &#10;&#9;C274.243713,250.125671 274.243713,243.385315 274.243713,235.999802 &#10;&#9;C267.026154,235.999802 260.263000,235.999802 252.999878,235.999802 &#10;z" stroke="none" opacity="1.000000" fill="#FFFFFF"/>
<path data-index="3" d="M173.453888,207.779724 &#10;&#9;C160.207047,204.983917 153.011246,194.677048 155.525589,182.645798 &#10;&#9;C157.900848,171.280121 168.807266,164.167892 180.267197,166.511459 &#10;&#9;C190.800201,168.665451 198.055710,178.611115 196.827499,189.211914 &#10;&#9;C195.481125,200.832687 186.309006,208.276184 173.453888,207.779724 &#10;z" stroke="none" opacity="1.000000" fill="#FEFBFB"/>
</svg>