<svg xml:space="preserve" viewBox="98.8 5.264 184.68 363.216" width="184.68" y="0px" x="0px" xmlns:xlink="http://www.w3.org/1999/xlink" xmlns="http://www.w3.org/2000/svg" id="Layer_1" version="1.1" style="max-height: 500px" height="363.216">

<path style="opacity: 1;" data-index="1" d="M117.308029,350.771698 &#10;&#9;C60.078083,322.984009 25.482973,278.059509 14.385968,215.883408 &#10;&#9;C-0.480639,132.586365 48.911568,48.057304 128.855789,18.439817 &#10;&#9;C231.587036,-19.619734 343.384186,40.874222 367.705536,147.682526 &#10;&#9;C390.370453,247.216324 324.374329,346.288605 223.528824,364.152649 &#10;&#9;C186.865372,370.647339 151.610596,366.010742 117.308029,350.771698 &#10;M151.500000,130.998352 &#10;&#9;C144.837585,130.998367 138.175140,130.982330 131.512787,131.001999 &#10;&#9;C120.347916,131.034958 115.015182,136.337402 115.004868,147.485260 &#10;&#9;C114.983452,170.636963 114.993881,193.788712 115.008163,216.940430 &#10;&#9;C115.009148,218.539688 115.150154,220.138840 115.240891,222.051178 &#10;&#9;C119.968521,222.051178 124.254654,222.051178 128.456512,222.051178 &#10;&#9;C131.618927,235.925095 139.052917,242.991318 150.195389,242.981155 &#10;&#9;C160.997650,242.971313 168.331955,235.855423 171.412949,222.228149 &#10;&#9;C185.125809,222.228149 198.886993,222.228149 212.603729,222.228149 &#10;&#9;C215.163147,235.305115 222.454651,242.534729 233.327026,242.958099 &#10;&#9;C244.473160,243.392120 251.816010,236.571030 255.612778,221.861725 &#10;&#9;C259.878113,221.861725 264.293304,221.861725 268.997986,221.861725 &#10;&#9;C268.997986,210.544724 269.086914,199.741669 268.903809,188.943237 &#10;&#9;C268.875763,187.288254 267.875153,185.446213 266.842682,184.045776 &#10;&#9;C261.323853,176.559998 255.776108,169.086670 249.931229,161.857346 &#10;&#9;C248.723770,160.363876 246.256744,159.253067 244.295013,159.125809 &#10;&#9;C238.702606,158.763062 233.071426,158.998398 226.917847,158.998398 &#10;&#9;C226.917847,149.441299 226.917847,140.382828 226.917847,130.998352 &#10;&#9;C201.744827,130.998352 177.122421,130.998352 151.500000,130.998352 &#10;z" stroke="none" opacity="1.000000" fill="#4295A5"/>
<path style="opacity: 1;" data-index="2" d="M152.000000,130.998352 &#10;&#9;C177.122421,130.998352 201.744827,130.998352 226.917847,130.998352 &#10;&#9;C226.917847,140.382828 226.917847,149.441299 226.917847,158.998398 &#10;&#9;C233.071426,158.998398 238.702606,158.763062 244.295013,159.125809 &#10;&#9;C246.256744,159.253067 248.723770,160.363876 249.931229,161.857346 &#10;&#9;C255.776108,169.086670 261.323853,176.559998 266.842682,184.045776 &#10;&#9;C267.875153,185.446213 268.875763,187.288254 268.903809,188.943237 &#10;&#9;C269.086914,199.741669 268.997986,210.544724 268.997986,221.861725 &#10;&#9;C264.293304,221.861725 259.878113,221.861725 255.612778,221.861725 &#10;&#9;C251.816010,236.571030 244.473160,243.392120 233.327026,242.958099 &#10;&#9;C222.454651,242.534729 215.163147,235.305115 212.603729,222.228149 &#10;&#9;C198.886993,222.228149 185.125809,222.228149 171.412949,222.228149 &#10;&#9;C168.331955,235.855423 160.997650,242.971313 150.195389,242.981155 &#10;&#9;C139.052917,242.991318 131.618927,235.925095 128.456512,222.051178 &#10;&#9;C124.254654,222.051178 119.968521,222.051178 115.240891,222.051178 &#10;&#9;C115.150154,220.138840 115.009148,218.539688 115.008163,216.940430 &#10;&#9;C114.993881,193.788712 114.983452,170.636963 115.004868,147.485260 &#10;&#9;C115.015182,136.337402 120.347916,131.034958 131.512787,131.001999 &#10;&#9;C138.175140,130.982330 144.837585,130.998367 152.000000,130.998352 &#10;M228.052521,169.527130 &#10;&#9;C227.568359,175.257187 227.084183,180.987244 226.600983,186.705872 &#10;&#9;C237.576477,186.705872 247.418732,186.705872 257.938751,186.705872 &#10;&#9;C256.357422,184.671600 254.885284,183.284424 254.024246,181.587204 &#10;&#9;C248.725510,171.143036 240.371704,167.167068 228.052521,169.527130 &#10;M140.548462,217.529007 &#10;&#9;C139.186050,222.087646 139.182587,226.452682 143.129486,229.794495 &#10;&#9;C147.551117,233.538315 154.572128,232.984726 157.844055,228.852325 &#10;&#9;C161.627060,224.074356 160.947708,217.217194 156.364120,213.914932 &#10;&#9;C151.007095,210.055435 144.969757,211.231827 140.548462,217.529007 &#10;M230.287888,231.765991 &#10;&#9;C232.257233,231.854996 234.257568,232.206985 236.189590,231.979309 &#10;&#9;C240.471573,231.474716 242.996719,228.632416 243.893784,224.676834 &#10;&#9;C244.807281,220.648819 244.285004,216.764359 240.568604,214.011627 &#10;&#9;C235.761795,210.451248 229.244278,211.091537 225.996368,215.474533 &#10;&#9;C221.909409,220.989899 223.245804,227.027802 230.287888,231.765991 &#10;z" stroke="none" opacity="1.000000" fill="#FEFEFF"/>
<path data-index="3" d="M228.504150,169.458862 &#10;&#9;C240.371704,167.167068 248.725510,171.143036 254.024246,181.587204 &#10;&#9;C254.885284,183.284424 256.357422,184.671600 257.938751,186.705872 &#10;&#9;C247.418732,186.705872 237.576477,186.705872 226.600983,186.705872 &#10;&#9;C227.084183,180.987244 227.568359,175.257187 228.504150,169.458862 &#10;z" stroke="none" opacity="1.000000" fill="#4898A8"/>
<path data-index="4" d="M140.799500,217.213898 &#10;&#9;C144.969757,211.231827 151.007095,210.055435 156.364120,213.914932 &#10;&#9;C160.947708,217.217194 161.627060,224.074356 157.844055,228.852325 &#10;&#9;C154.572128,232.984726 147.551117,233.538315 143.129486,229.794495 &#10;&#9;C139.182587,226.452682 139.186050,222.087646 140.799500,217.213898 &#10;z" stroke="none" opacity="1.000000" fill="#4496A6"/>
<path data-index="5" d="M229.910568,231.610138 &#10;&#9;C223.245804,227.027802 221.909409,220.989899 225.996368,215.474533 &#10;&#9;C229.244278,211.091537 235.761795,210.451248 240.568604,214.011627 &#10;&#9;C244.285004,216.764359 244.807281,220.648819 243.893784,224.676834 &#10;&#9;C242.996719,228.632416 240.471573,231.474716 236.189590,231.979309 &#10;&#9;C234.257568,232.206985 232.257233,231.854996 229.910568,231.610138 &#10;z" stroke="none" opacity="1.000000" fill="#4496A6"/>
</svg>