<svg xml:space="preserve" viewBox="106.55999999999999 22.572000000000003 159.1 293.436" width="159.1" y="0px" x="0px" xmlns:xlink="http://www.w3.org/1999/xlink" xmlns="http://www.w3.org/2000/svg" id="Layer_1" version="1.1" style="max-height: 500px" height="293.436">

<path data-index="1" d="M140.162064,305.902283 &#10;&#9;C87.960793,286.349518 55.684429,249.710220 44.480392,195.481552 &#10;&#9;C28.750206,119.345932 81.341202,41.423016 158.059021,27.184505 &#10;&#9;C243.805527,11.270309 314.167572,67.703751 328.733368,141.956802 &#10;&#9;C343.561249,217.546188 293.946228,293.287933 218.334457,309.975220 &#10;&#9;C192.056992,315.774597 166.108856,314.476257 140.162064,305.902283 &#10;M231.629761,140.609711 &#10;&#9;C232.493866,123.427803 226.020111,117.114098 208.750427,114.101189 &#10;&#9;C204.346176,113.332802 199.820999,112.918327 195.352112,112.924049 &#10;&#9;C182.423203,112.940582 169.402786,111.861313 156.755264,115.906601 &#10;&#9;C147.377228,118.906151 141.570038,124.750290 141.489197,134.956497 &#10;&#9;C141.341431,153.611771 141.365295,172.269562 141.512314,190.924744 &#10;&#9;C141.532578,193.496277 141.937042,196.639435 143.428223,198.509659 &#10;&#9;C146.946365,202.922073 147.161972,207.722046 147.343170,212.939514 &#10;&#9;C147.416077,215.038727 149.332123,218.164429 151.185532,218.920715 &#10;&#9;C158.820892,222.036407 163.658569,218.624542 164.027878,210.540222 &#10;&#9;C164.056808,209.906799 164.223099,209.279648 164.353058,208.480423 &#10;&#9;C179.228409,208.480423 193.953476,208.480423 208.665283,208.480423 &#10;&#9;C208.802353,209.278717 208.939316,209.763184 208.961609,210.252853 &#10;&#9;C209.321136,218.153625 210.783493,219.712433 217.786499,219.628876 &#10;&#9;C224.482300,219.549011 225.873260,217.706451 226.080200,209.633286 &#10;&#9;C226.145172,207.098618 226.926788,204.549591 227.610580,202.070633 &#10;&#9;C228.859756,197.542023 231.304184,193.092346 231.444138,188.554062 &#10;&#9;C231.926605,172.909607 231.629486,157.241119 231.629761,140.609711 &#10;z" stroke="none" opacity="1.000000" fill="#757575"/>
<path data-index="2" d="M231.629532,141.095749 &#10;&#9;C231.629486,157.241119 231.926605,172.909607 231.444138,188.554062 &#10;&#9;C231.304184,193.092346 228.859756,197.542023 227.610580,202.070633 &#10;&#9;C226.926788,204.549591 226.145172,207.098618 226.080200,209.633286 &#10;&#9;C225.873260,217.706451 224.482300,219.549011 217.786499,219.628876 &#10;&#9;C210.783493,219.712433 209.321136,218.153625 208.961609,210.252853 &#10;&#9;C208.939316,209.763184 208.802353,209.278717 208.665283,208.480423 &#10;&#9;C193.953476,208.480423 179.228409,208.480423 164.353058,208.480423 &#10;&#9;C164.223099,209.279648 164.056808,209.906799 164.027878,210.540222 &#10;&#9;C163.658569,218.624542 158.820892,222.036407 151.185532,218.920715 &#10;&#9;C149.332123,218.164429 147.416077,215.038727 147.343170,212.939514 &#10;&#9;C147.161972,207.722046 146.946365,202.922073 143.428223,198.509659 &#10;&#9;C141.937042,196.639435 141.532578,193.496277 141.512314,190.924744 &#10;&#9;C141.365295,172.269562 141.341431,153.611771 141.489197,134.956497 &#10;&#9;C141.570038,124.750290 147.377228,118.906151 156.755264,115.906601 &#10;&#9;C169.402786,111.861313 182.423203,112.940582 195.352112,112.924049 &#10;&#9;C199.820999,112.918327 204.346176,113.332802 208.750427,114.101189 &#10;&#9;C226.020111,117.114098 232.493866,123.427803 231.629532,141.095749 &#10;M153.056152,162.253845 &#10;&#9;C154.288635,162.548584 155.520447,163.096970 156.753708,163.100220 &#10;&#9;C176.746353,163.153015 196.739227,163.144913 216.731979,163.113464 &#10;&#9;C217.819016,163.111755 218.905533,162.784149 219.765656,162.644928 &#10;&#9;C219.765656,153.348816 219.765656,144.435989 219.765656,135.509583 &#10;&#9;C197.326691,135.509583 175.262726,135.509583 152.896866,135.509583 &#10;&#9;C152.896866,144.337814 152.896866,152.817993 153.056152,162.253845 &#10;M213.185287,180.275558 &#10;&#9;C208.826782,179.844208 205.217987,181.704346 204.228195,185.695007 &#10;&#9;C203.576584,188.322189 204.352417,192.389481 206.128799,194.224686 &#10;&#9;C207.874161,196.027832 211.828537,196.707169 214.563873,196.280212 &#10;&#9;C217.962997,195.749664 220.086792,192.909927 220.099503,188.990662 &#10;&#9;C220.113831,184.574493 218.096573,181.760223 213.185287,180.275558 &#10;M159.942963,180.304977 &#10;&#9;C153.802185,182.786591 151.350586,187.343628 153.590958,192.112106 &#10;&#9;C155.725021,196.654312 161.898666,198.752991 165.717682,195.395569 &#10;&#9;C167.797195,193.567398 169.219757,189.773666 169.103027,186.942139 &#10;&#9;C168.912872,182.329971 165.140045,180.433899 159.942963,180.304977 &#10;z" stroke="none" opacity="1.000000" fill="#FCFCFC"/>
<path data-index="3" d="M152.976501,161.776016 &#10;&#9;C152.896866,152.817993 152.896866,144.337814 152.896866,135.509583 &#10;&#9;C175.262726,135.509583 197.326691,135.509583 219.765656,135.509583 &#10;&#9;C219.765656,144.435989 219.765656,153.348816 219.765656,162.644928 &#10;&#9;C218.905533,162.784149 217.819016,163.111755 216.731979,163.113464 &#10;&#9;C196.739227,163.144913 176.746353,163.153015 156.753708,163.100220 &#10;&#9;C155.520447,163.096970 154.288635,162.548584 152.976501,161.776016 &#10;z" stroke="none" opacity="1.000000" fill="#767676"/>
<path data-index="4" d="M213.564148,180.340332 &#10;&#9;C218.096573,181.760223 220.113831,184.574493 220.099503,188.990662 &#10;&#9;C220.086792,192.909927 217.962997,195.749664 214.563873,196.280212 &#10;&#9;C211.828537,196.707169 207.874161,196.027832 206.128799,194.224686 &#10;&#9;C204.352417,192.389481 203.576584,188.322189 204.228195,185.695007 &#10;&#9;C205.217987,181.704346 208.826782,179.844208 213.564148,180.340332 &#10;z" stroke="none" opacity="1.000000" fill="#7C7C7C"/>
<path data-index="5" d="M160.323181,180.237091 &#10;&#9;C165.140045,180.433899 168.912872,182.329971 169.103027,186.942139 &#10;&#9;C169.219757,189.773666 167.797195,193.567398 165.717682,195.395569 &#10;&#9;C161.898666,198.752991 155.725021,196.654312 153.590958,192.112106 &#10;&#9;C151.350586,187.343628 153.802185,182.786591 160.323181,180.237091 &#10;z" stroke="none" opacity="1.000000" fill="#7C7C7C"/>
</svg>