<svg xml:space="preserve" viewBox="102.06 11.328 174.258 327.096" width="174.258" y="0px" x="0px" xmlns:xlink="http://www.w3.org/1999/xlink" xmlns="http://www.w3.org/2000/svg" id="Layer_1" version="1.1" style="max-height: 500px" height="327.096">

<path data-index="1" d="M254.818100,321.857422 &#10;&#9;C159.548965,362.867584 51.917316,307.256805 31.437344,206.015884 &#10;&#9;C13.033535,115.038277 73.770233,29.606249 162.530045,14.919167 &#10;&#9;C254.896103,-0.364643 333.947723,61.815601 348.762329,145.755280 &#10;&#9;C361.789185,219.565765 324.122925,289.740295 254.818100,321.857422 &#10;M159.788422,131.146088 &#10;&#9;C145.075226,136.354507 131.730545,143.739594 120.470100,155.601242 &#10;&#9;C124.326576,159.294327 127.919884,162.749451 131.535858,166.180695 &#10;&#9;C131.997681,166.618927 132.577652,166.932678 132.813553,167.099503 &#10;&#9;C170.883224,136.492752 208.585007,136.603516 246.611267,167.152954 &#10;&#9;C250.819824,163.500305 255.113831,159.773483 259.393158,156.059402 &#10;&#9;C233.243469,129.368774 195.191696,120.383080 159.788422,131.146088 &#10;M189.526825,162.011688 &#10;&#9;C172.623764,162.494370 158.019501,168.316086 146.612320,179.445801 &#10;&#9;C150.823700,183.988556 154.636703,188.101578 158.606155,192.383377 &#10;&#9;C167.480530,184.528595 177.696396,179.862106 189.750992,179.947922 &#10;&#9;C201.893051,180.034348 212.357697,184.403381 220.645172,192.419846 &#10;&#9;C225.063583,188.237961 229.148132,184.372070 233.218018,180.520050 &#10;&#9;C224.021332,169.491470 208.372162,162.748795 189.526825,162.011688 &#10;M174.417084,209.114883 &#10;&#9;C179.416092,214.153732 184.415115,219.192596 188.890289,223.703430 &#10;&#9;C195.454514,217.176147 201.545715,211.119247 207.656189,205.043167 &#10;&#9;C199.005066,195.053040 180.881149,195.185135 170.657669,206.338074 &#10;&#9;C171.721680,207.083023 172.820648,207.852463 174.417084,209.114883 &#10;z" stroke="none" opacity="1.000000" fill="#4599DF"/>
<path data-index="2" d="M160.179199,131.059998 &#10;&#9;C195.191696,120.383080 233.243469,129.368774 259.393158,156.059402 &#10;&#9;C255.113831,159.773483 250.819824,163.500305 246.611267,167.152954 &#10;&#9;C208.585007,136.603516 170.883224,136.492752 132.813553,167.099503 &#10;&#9;C132.577652,166.932678 131.997681,166.618927 131.535858,166.180695 &#10;&#9;C127.919884,162.749451 124.326576,159.294327 120.470100,155.601242 &#10;&#9;C131.730545,143.739594 145.075226,136.354507 160.179199,131.059998 &#10;z" stroke="none" opacity="1.000000" fill="#FAFCFE"/>
<path data-index="3" d="M190.000305,162.011719 &#10;&#9;C208.372162,162.748795 224.021332,169.491470 233.218018,180.520050 &#10;&#9;C229.148132,184.372070 225.063583,188.237961 220.645172,192.419846 &#10;&#9;C212.357697,184.403381 201.893051,180.034348 189.750992,179.947922 &#10;&#9;C177.696396,179.862106 167.480530,184.528595 158.606155,192.383377 &#10;&#9;C154.636703,188.101578 150.823700,183.988556 146.612320,179.445801 &#10;&#9;C158.019501,168.316086 172.623764,162.494370 190.000305,162.011719 &#10;z" stroke="none" opacity="1.000000" fill="#FAFCFE"/>
<path data-index="4" d="M174.168350,208.868378 &#10;&#9;C172.820648,207.852463 171.721680,207.083023 170.657669,206.338074 &#10;&#9;C180.881149,195.185135 199.005066,195.053040 207.656189,205.043167 &#10;&#9;C201.545715,211.119247 195.454514,217.176147 188.890289,223.703430 &#10;&#9;C184.415115,219.192596 179.416092,214.153732 174.168350,208.868378 &#10;z" stroke="none" opacity="1.000000" fill="#FAFCFE"/>
</svg>